<svg width="17" height="18" viewBox="0 0 17 18" fill="none" xmlns="http://www.w3.org/2000/svg">
<path fill-rule="evenodd" clip-rule="evenodd" d="M7.98975 1.07233C8.12721 0.925307 8.30983 0.843292 8.49973 0.843292C8.68964 0.843292 8.87225 0.925307 9.00971 1.07233L14.9225 7.39046L16.7702 9.3641C16.9124 9.51586 16.9949 9.72474 16.9998 9.94479C17.0046 10.1648 16.9314 10.3781 16.7961 10.5375C16.6609 10.697 16.4747 10.7896 16.2786 10.795C16.0824 10.8005 15.8924 10.7183 15.7503 10.5665L15.1516 9.92551V16.1848C15.1516 16.6246 14.9959 17.0465 14.7187 17.3575C14.4414 17.6686 14.0655 17.8433 13.6734 17.8433H3.32604C2.934 17.8433 2.55802 17.6686 2.2808 17.3575C2.00359 17.0465 1.84785 16.6246 1.84785 16.1848V9.92551L1.24918 10.5657C1.10726 10.7175 0.917423 10.7997 0.721431 10.7945C0.52544 10.7892 0.339348 10.6967 0.204093 10.5375C0.0688388 10.3783 -0.00449881 10.1653 0.000213858 9.94538C0.00492652 9.72548 0.0873035 9.51669 0.229223 9.36493L2.07697 7.39046L7.98975 1.0715V1.07233ZM3.32604 8.3466V16.1848H6.28244V12.0385C6.28244 11.3787 6.51604 10.7459 6.93187 10.2793C7.34769 9.81279 7.91167 9.55069 8.49973 9.55069C9.0878 9.55069 9.65177 9.81279 10.0676 10.2793C10.4834 10.7459 10.717 11.3787 10.717 12.0385V16.1848H13.6734V8.3466L8.49973 2.81709L3.32604 8.34577V8.3466ZM9.23883 16.1848V12.0385C9.23883 11.8185 9.16096 11.6076 9.02235 11.4521C8.88375 11.2966 8.69575 11.2092 8.49973 11.2092C8.30371 11.2092 8.11572 11.2966 7.97711 11.4521C7.8385 11.6076 7.76063 11.8185 7.76063 12.0385V16.1848H9.23883Z" fill="#7B7B7B"/>
</svg>
