<svg width="6" height="10" viewBox="0 0 6 10" fill="none" xmlns="http://www.w3.org/2000/svg">
<path fill-rule="evenodd" clip-rule="evenodd" d="M6 5.3208C5.99996 5.46646 5.9296 5.60614 5.8044 5.70912L1.13135 9.55383C1.00545 9.65388 0.836814 9.70924 0.661778 9.70799C0.486741 9.70674 0.319304 9.64897 0.195529 9.54714C0.0717545 9.4453 0.00154644 9.30755 2.53392e-05 9.16353C-0.00149576 9.01953 0.0657922 8.88078 0.187397 8.7772L4.38847 5.3208L0.187397 1.8644C0.0657925 1.76082 -0.0014954 1.62208 2.57221e-05 1.47807C0.00154684 1.33406 0.0717549 1.1963 0.195529 1.09446C0.319304 0.992629 0.486741 0.934866 0.661778 0.933614C0.836815 0.932363 1.00545 0.987724 1.13135 1.08777L5.8044 4.93249C5.9296 5.03546 5.99996 5.17514 6 5.3208Z" fill="#00264D"/>
</svg>
