<svg width="39" height="39" viewBox="0 0 39 39" fill="none" xmlns="http://www.w3.org/2000/svg">
<path fill-rule="evenodd" clip-rule="evenodd" d="M19.5 11.3755C19.9309 11.3756 20.3442 11.5469 20.6489 11.8516L32.0239 23.2272C32.3199 23.5337 32.4837 23.9442 32.48 24.3703C32.4763 24.7964 32.3054 25.204 32.0041 25.5053C31.7028 25.8066 31.2952 25.9775 30.8691 25.9812C30.4431 25.9849 30.0326 25.8211 29.7261 25.5251L19.5 15.2984L9.27386 25.5251C8.96739 25.8211 8.55691 25.9849 8.13084 25.9812C7.70477 25.9775 7.2972 25.8066 6.99591 25.5053C6.69462 25.204 6.52372 24.7964 6.52002 24.3703C6.51632 23.9442 6.68011 23.5337 6.97612 23.2272L18.3511 11.8516C18.6558 11.5469 19.069 11.3756 19.5 11.3755Z" fill="white"/>
</svg>
